<svg width="23" height="23" viewBox="0 0 23 23" fill="none" xmlns="http://www.w3.org/2000/svg">
<path d="M11.4999 1V7.99993M11.4999 1L8.58326 3.91664M11.4999 1L14.4165 3.91664M4.29385 8.00036C4.77798 8.4279 5.08329 9.05325 5.08329 9.74991C5.08329 11.0386 4.03864 12.0832 2.74998 12.0832C2.05331 12.0832 1.42796 11.7779 1.00043 11.2937M4.29385 8.00036C4.43165 7.99993 4.57785 7.99993 4.7333 7.99993H6.83328M4.29385 8.00036C3.27325 8.00352 2.71376 8.03018 2.27401 8.25425C1.83496 8.47794 1.47801 8.83489 1.25432 9.27392C1.03025 9.71375 1.00359 10.2732 1.00043 11.2937M1.00043 11.2937C1 11.4315 1 11.5778 1 11.7332V18.2665C1 18.4219 1 18.5682 1.00043 18.706M1.00043 18.706C1.42796 18.2218 2.05331 17.9165 2.74998 17.9165C4.03864 17.9165 5.08329 18.9611 5.08329 20.2498C5.08329 20.9464 4.77798 21.5719 4.29385 21.9993M1.00043 18.706C1.00359 19.7266 1.03025 20.2861 1.25432 20.7258C1.47801 21.1648 1.83496 21.5218 2.27401 21.7455C2.71376 21.9696 3.27325 21.9962 4.29385 21.9993M4.29385 21.9993C4.43165 21.9998 4.57785 21.9998 4.7333 21.9998H18.2665C18.4219 21.9998 18.5682 21.9998 18.706 21.9993M18.706 21.9993C18.2218 21.5719 17.9165 20.9464 17.9165 20.2498C17.9165 18.9611 18.9611 17.9165 20.2498 17.9165C20.9467 17.9165 21.5722 18.222 21.9998 18.7064M18.706 21.9993C19.7266 21.9962 20.2861 21.9696 20.7258 21.7455C21.1648 21.5218 21.5218 21.1648 21.7455 20.7258C21.9695 20.2861 21.9966 19.7267 21.9998 18.7064M21.9998 18.7064C22.0003 18.5685 21.9998 18.4221 21.9998 18.2665V11.7332C21.9998 11.5778 21.9998 11.4315 21.9993 11.2937M21.9993 11.2937C21.5719 11.7779 20.9464 12.0832 20.2498 12.0832C18.9611 12.0832 17.9165 11.0386 17.9165 9.74991C17.9165 9.05325 18.2218 8.4279 18.706 8.00036M21.9993 11.2937C21.9962 10.2732 21.9696 9.71375 21.7455 9.27392C21.5218 8.83489 21.1648 8.47794 20.7258 8.25425C20.2861 8.03018 19.7266 8.00352 18.706 8.00036M18.706 8.00036C18.5682 7.99993 18.4219 7.99993 18.2665 7.99993H16.1665M13.8332 14.9999C13.8332 16.2885 12.7886 17.3332 11.4999 17.3332C10.2112 17.3332 9.16659 16.2885 9.16659 14.9999C9.16659 13.7112 10.2112 12.6666 11.4999 12.6666C12.7886 12.6666 13.8332 13.7112 13.8332 14.9999Z" stroke="#212634" stroke-width="2" stroke-linecap="round" stroke-linejoin="round"/>
</svg>
