<svg width="25" height="25" viewBox="0 0 25 25" fill="none" xmlns="http://www.w3.org/2000/svg">
<path fill-rule="evenodd" clip-rule="evenodd" d="M3.125 4.16671C3.125 3.01611 4.05774 2.08337 5.20834 2.08337H17.7083C18.859 2.08337 19.7917 3.01611 19.7917 4.16671V5.30218C20.1967 5.36604 20.6929 5.47552 21.1991 5.66532C21.8162 5.89672 22.5039 6.26846 23.0442 6.87635C23.6037 7.50576 23.9583 8.3377 23.9583 9.37504C23.9583 10.4124 23.6037 11.2443 23.0442 11.8737C22.5039 12.4816 21.8162 12.8534 21.1991 13.0847C20.6575 13.2879 20.1273 13.399 19.708 13.4607L19.7069 13.4684C19.6245 14.0176 19.4578 14.7676 19.114 15.5317C18.7696 16.297 18.2321 17.1097 17.3925 17.7316C16.5407 18.3625 15.4407 18.75 14.0625 18.75H8.85417C7.47595 18.75 6.37591 18.3625 5.52418 17.7316C4.68462 17.1097 4.14709 16.297 3.80269 15.5317C3.38296 14.599 3.1278 13.5308 3.125 12.5021V4.16671ZM19.7917 11.3295V7.42051C20.0098 7.46757 20.2408 7.53099 20.4676 7.61601C20.8922 7.77524 21.2462 7.98944 21.4871 8.26045C21.7089 8.50996 21.875 8.84988 21.875 9.37504C21.875 9.9002 21.7089 10.2401 21.4871 10.4896C21.2462 10.7607 20.8922 10.9748 20.4676 11.1341C20.2408 11.2191 20.0098 11.2825 19.7917 11.3295ZM5.20834 12.4972C5.21786 13.2367 5.4007 14.006 5.70252 14.6767C5.94407 15.2135 6.28545 15.7029 6.76423 16.0575C7.23087 16.4032 7.88864 16.6667 8.85417 16.6667H14.0625C15.028 16.6667 15.6858 16.4032 16.1524 16.0575C16.6313 15.7029 16.9726 15.2135 17.2142 14.6767C17.5142 14.01 17.7057 13.2341 17.7083 12.4973V4.16671H5.20834V12.4972Z" fill="white"/>
<path d="M23.9583 21.875C23.9583 21.2997 23.492 20.8334 22.9167 20.8334H2.08334C1.50805 20.8334 1.04167 21.2997 1.04167 21.875C1.04167 22.4504 1.50805 22.9167 2.08334 22.9167H22.9167C23.492 22.9167 23.9583 22.4504 23.9583 21.875Z" fill="white"/>
</svg>
