<svg width="24" height="24" viewBox="0 0 24 24" fill="none" xmlns="http://www.w3.org/2000/svg">
<path fill-rule="evenodd" clip-rule="evenodd" d="M7.67705 9.44996H3.42305C2.79886 9.44518 2.19817 9.67199 1.75315 10.0805C1.30811 10.489 1.0552 11.0457 1.05005 11.6282V19.8721C1.0616 21.0847 2.12381 22.0592 3.42305 22.049H7.67705C8.3012 22.0539 8.90195 21.8271 9.347 21.4186C9.79205 21.0101 10.045 20.4534 10.0501 19.8707V11.6282C10.045 11.0457 9.79205 10.489 9.347 10.0805C8.90195 9.67199 8.3012 9.44518 7.67705 9.44996Z" stroke="#212634" stroke-width="2.1" stroke-linecap="round" stroke-linejoin="round"/>
<path fill-rule="evenodd" clip-rule="evenodd" d="M7.67705 1.05077H3.42305C2.14994 1.01782 1.08843 1.95275 1.05005 3.1408V4.56029C1.08843 5.74836 2.14994 6.68329 3.42305 6.65032H7.67705C8.9501 6.68329 10.0116 5.74836 10.05 4.56029V3.1408C10.0116 1.95275 8.9501 1.01782 7.67705 1.05077Z" stroke="#212634" stroke-width="2.1" stroke-linecap="round" stroke-linejoin="round"/>
<path fill-rule="evenodd" clip-rule="evenodd" d="M15.423 13.6499H19.6755C20.3 13.655 20.901 13.4284 21.3464 13.0199C21.7917 12.6113 22.0449 12.0544 22.05 11.4716V3.22903C22.0449 2.64651 21.792 2.08975 21.347 1.68125C20.9019 1.27275 20.3012 1.04596 19.677 1.05081H15.423C14.7989 1.04596 14.1982 1.27275 13.7531 1.68125C13.3081 2.08975 13.0551 2.64651 13.05 3.22903V11.4716C13.0551 12.0541 13.3081 12.6109 13.7531 13.0193C14.1982 13.4278 14.7989 13.6546 15.423 13.6499Z" stroke="#212634" stroke-width="2.1" stroke-linecap="round" stroke-linejoin="round"/>
<path fill-rule="evenodd" clip-rule="evenodd" d="M15.423 22.049H19.6755C20.9492 22.0828 22.0116 21.1477 22.05 19.959V18.5395C22.0116 17.3514 20.9501 16.4166 19.677 16.4495H15.423C14.15 16.4166 13.0884 17.3514 13.05 18.5395V19.9576C13.0875 21.1463 14.1494 22.0819 15.423 22.049Z" stroke="#212634" stroke-width="2.1" stroke-linecap="round" stroke-linejoin="round"/>
</svg>
