<svg width="34" height="34" viewBox="0 0 34 34" fill="none" xmlns="http://www.w3.org/2000/svg">
<path d="M1.66666 31.6666H31.6667M1.66666 26.6666H31.6667M6.37221 1.66724C7.06382 2.27801 7.49999 3.17138 7.49999 4.16663C7.49999 6.00758 6.00761 7.49996 4.16666 7.49996C3.17141 7.49996 2.27804 7.06379 1.66727 6.37218M6.37221 1.66724C6.56906 1.66663 6.77792 1.66663 6.99999 1.66663H26.3333C26.5553 1.66663 26.7643 1.66663 26.9612 1.66724M6.37221 1.66724C4.91419 1.67176 4.11491 1.70984 3.48669 2.02994C2.85947 2.34951 2.34954 2.85944 2.02997 3.48666C1.70987 4.11488 1.67179 4.91416 1.66727 6.37218M1.66727 6.37218C1.66666 6.56903 1.66666 6.77789 1.66666 6.99996V16.3333C1.66666 16.5553 1.66666 16.7643 1.66727 16.9611M26.9612 1.66724C26.2695 2.27801 25.8333 3.17138 25.8333 4.16663C25.8333 6.00758 27.3257 7.49996 29.1667 7.49996C30.1618 7.49996 31.0553 7.06379 31.666 6.37218M26.9612 1.66724C28.4192 1.67176 29.2185 1.70984 29.8467 2.02994C30.4738 2.34951 30.9838 2.85944 31.3033 3.48666C31.6235 4.11488 31.6615 4.91416 31.666 6.37218M1.66727 16.9611C2.27804 16.2695 3.17141 15.8333 4.16666 15.8333C6.00761 15.8333 7.49999 17.3256 7.49999 19.1666C7.49999 20.1618 7.06382 21.0553 6.37221 21.666M1.66727 16.9611C1.67179 18.4191 1.70987 19.2183 2.02997 19.8466C2.34954 20.4738 2.85947 20.9838 3.48669 21.3033C4.11491 21.6235 4.91419 21.6615 6.37221 21.666M6.37221 21.666C6.56906 21.6666 6.77792 21.6666 6.99999 21.6666H26.3333C26.5553 21.6666 26.7643 21.6666 26.9612 21.666M26.9612 21.666C26.2695 21.0553 25.8333 20.1618 25.8333 19.1666C25.8333 17.3256 27.3257 15.8333 29.1667 15.8333C30.1622 15.8333 31.0558 16.2698 31.6667 16.9618M26.9612 21.666C28.4192 21.6615 29.2185 21.6235 29.8467 21.3033C30.4738 20.9838 30.9838 20.4738 31.3033 19.8466C31.6233 19.2185 31.6622 18.4193 31.6667 16.9618M31.6667 16.9618C31.6673 16.7648 31.6667 16.5556 31.6667 16.3333V6.99996C31.6667 6.77789 31.6667 6.56903 31.666 6.37218M20 11.6666C20 13.5076 18.5077 15 16.6667 15C14.8257 15 13.3333 13.5076 13.3333 11.6666C13.3333 9.82568 14.8257 8.33329 16.6667 8.33329C18.5077 8.33329 20 9.82568 20 11.6666Z" stroke="#017A07" stroke-width="3.33333" stroke-linecap="round" stroke-linejoin="round"/>
</svg>
