<svg width="23" height="23" viewBox="0 0 23 23" fill="none" xmlns="http://www.w3.org/2000/svg">
<path d="M1.25 4.58358H21.25M16.25 4.58358L15.9117 3.68143C15.5839 2.80719 15.4199 2.37007 15.1159 2.04689C14.8474 1.7615 14.5026 1.5406 14.1131 1.40444C13.672 1.25024 13.1537 1.25024 12.117 1.25024H10.383C9.34625 1.25024 8.828 1.25024 8.38689 1.40444C7.9974 1.5406 7.6526 1.7615 7.38411 2.04689C7.08006 2.37007 6.91615 2.80719 6.5883 3.68143L6.25 4.58358M18.75 4.58358V15.9169C18.75 17.7838 18.75 18.7171 18.3413 19.4302C17.9818 20.0575 17.4081 20.5674 16.7025 20.8869C15.9002 21.2502 14.8502 21.2502 12.75 21.2502H9.75C7.6498 21.2502 6.5997 21.2502 5.79754 20.8869C5.09193 20.5674 4.51825 20.0575 4.15873 19.4302C3.75 18.7171 3.75 17.7838 3.75 15.9169V4.58358M13.75 9.02802V16.8058M8.75 9.02802V16.8058" stroke="#950000" stroke-width="2.5" stroke-linecap="round" stroke-linejoin="round"/>
</svg>
