<svg width="24" height="24" viewBox="0 0 24 24" fill="none" xmlns="http://www.w3.org/2000/svg">
<path d="M18.875 6.625V5.575C18.875 4.10487 18.875 3.36979 18.6207 2.80828C18.397 2.31434 18.04 1.91277 17.601 1.66111C17.1019 1.375 16.4485 1.375 15.1417 1.375H5.10833C3.80154 1.375 3.14815 1.375 2.64902 1.66111C2.20997 1.91277 1.85302 2.31434 1.62932 2.80828C1.375 3.36979 1.375 4.10487 1.375 5.575V6.625M1.375 6.625V18.175C1.375 19.6451 1.375 20.3803 1.62932 20.9417C1.85302 21.4356 2.20997 21.8373 2.64902 22.0889C3.14815 22.375 3.80154 22.375 5.10833 22.375H18.6417C19.9484 22.375 20.6019 22.375 21.101 22.0889C21.54 21.8373 21.897 21.4356 22.1207 20.9417C22.375 20.3803 22.375 19.6451 22.375 18.175V10.825C22.375 9.35487 22.375 8.61979 22.1207 8.05828C21.897 7.56434 21.54 7.16277 21.101 6.91111C20.6019 6.625 19.9484 6.625 18.6417 6.625H1.375ZM22.375 11.875H20.0417C18.753 11.875 17.7083 13.0502 17.7083 14.5C17.7083 15.9498 18.753 17.125 20.0417 17.125H22.375" stroke="#212634" stroke-width="2.75" stroke-linecap="round" stroke-linejoin="round"/>
</svg>
